<?xml version="1.0" standalone="no"?>
<!DOCTYPE svg PUBLIC "-//W3C//DTD SVG 20010904//EN"
 "http://www.w3.org/TR/2001/REC-SVG-20010904/DTD/svg10.dtd">
<svg version="1.0" xmlns="http://www.w3.org/2000/svg"
 width="628.000000pt" height="628.000000pt" viewBox="0 0 628.000000 628.000000"
 preserveAspectRatio="xMidYMid meet">
<metadata>
Created by potrace 1.11, written by Peter Selinger 2001-2013
</metadata>
<g transform="translate(0.000000,628.000000) scale(0.100000,-0.100000)"
fill="#000000" stroke="none">
<path d="M0 3140 l0 -3140 3140 0 3140 0 0 3140 0 3140 -3140 0 -3140 0 0
-3140z m1342 2411 c139 -110 303 -1141 428 -2706 12 -143 22 -263 23 -266 1
-3 173 264 382 595 209 330 515 814 681 1076 165 261 414 655 553 875 139 220
262 408 274 417 28 22 74 30 97 18 10 -5 23 -23 28 -40 6 -16 82 -797 169
-1735 87 -938 160 -1705 163 -1705 6 0 308 383 773 979 383 491 663 933 746
1179 33 96 54 238 47 312 -9 102 -41 154 -162 266 -118 109 -196 207 -219 273
-19 57 -19 163 0 227 23 77 86 168 138 199 25 14 80 33 121 41 249 51 506
-113 570 -363 106 -408 -125 -985 -737 -1848 -403 -568 -1112 -1467 -1462
-1855 -201 -222 -307 -309 -361 -296 -57 15 -51 -26 -165 1176 -207 2196 -193
2068 -211 2040 -18 -28 -1678 -2747 -1831 -3000 -55 -91 -107 -173 -115 -182
-16 -20 -96 -25 -121 -9 -12 8 -19 98 -37 463 -55 1103 -74 1397 -130 1973
-64 661 -140 1113 -219 1290 -48 109 -151 188 -280 215 -61 13 -296 16 -347 4
l-28 -6 0 71 c0 39 2 71 4 71 56 0 769 156 1026 224 91 25 168 45 171 45 4 1
17 -8 31 -18z"/>
</g>
</svg>
